<svg width="48" height="48" viewBox="0 0 48 48" fill="none" xmlns="http://www.w3.org/2000/svg">
<rect x="0.489796" y="0.489796" width="47.0204" height="47.0204" rx="23.5102" stroke="#E4E7EC" stroke-width="0.979592"/>
<path d="M24.0199 32.5302C21.6899 32.5302 19.3599 32.1602 17.1499 31.4202C16.3099 31.1302 15.6699 30.5402 15.3899 29.7702C15.0999 29.0002 15.1999 28.1502 15.6599 27.3902L16.8099 25.4802C17.0499 25.0802 17.2699 24.2802 17.2699 23.8102V20.9202C17.2699 17.2002 20.2999 14.1702 24.0199 14.1702C27.7399 14.1702 30.7699 17.2002 30.7699 20.9202V23.8102C30.7699 24.2702 30.9899 25.0802 31.2299 25.4902L32.3699 27.3902C32.7999 28.1102 32.8799 28.9802 32.5899 29.7702C32.2999 30.5602 31.6699 31.1602 30.8799 31.4202C28.6799 32.1602 26.3499 32.5302 24.0199 32.5302ZM24.0199 15.6702C21.1299 15.6702 18.7699 18.0202 18.7699 20.9202V23.8102C18.7699 24.5402 18.4699 25.6202 18.0999 26.2502L16.9499 28.1602C16.7299 28.5302 16.6699 28.9202 16.7999 29.2502C16.9199 29.5902 17.2199 29.8502 17.6299 29.9902C21.8099 31.3902 26.2399 31.3902 30.4199 29.9902C30.7799 29.8702 31.0599 29.6002 31.1899 29.2402C31.3199 28.8802 31.2899 28.4902 31.0899 28.1602L29.9399 26.2502C29.5599 25.6002 29.2699 24.5302 29.2699 23.8002V20.9202C29.2699 18.0202 26.9199 15.6702 24.0199 15.6702Z" fill="#2B2B2B"/>
<path d="M25.8801 15.9399C25.8101 15.9399 25.7401 15.9299 25.6701 15.9099C25.3801 15.8299 25.1001 15.7699 24.8301 15.7299C23.9801 15.6199 23.1601 15.6799 22.3901 15.9099C22.1101 15.9999 21.8101 15.9099 21.6201 15.6999C21.4301 15.4899 21.3701 15.1899 21.4801 14.9199C21.8901 13.8699 22.8901 13.1799 24.0301 13.1799C25.1701 13.1799 26.1701 13.8599 26.5801 14.9199C26.6801 15.1899 26.6301 15.4899 26.4401 15.6999C26.2901 15.8599 26.0801 15.9399 25.8801 15.9399Z" fill="#2B2B2B"/>
<path d="M24.02 34.8102C23.03 34.8102 22.07 34.4102 21.37 33.7102C20.67 33.0102 20.27 32.0502 20.27 31.0602H21.77C21.77 31.6502 22.01 32.2302 22.43 32.6502C22.85 33.0702 23.43 33.3102 24.02 33.3102C25.26 33.3102 26.27 32.3002 26.27 31.0602H27.77C27.77 33.1302 26.09 34.8102 24.02 34.8102Z" fill="#2B2B2B"/>
</svg>
